# xmcd
#
# Track frame offsets:
# 150
# 16857
# 34432
# 50970
# 69069
# 91176
# 108528
# 123447
# 144051
# 158601
# 173780
# 191479
# 212840
# 221607
# 244982
#
# Disc length: 3519 seconds
#
# Revision: 0
# Processed by: cddbd v1.5.2PL0 Copyright (c) Steve Scherf et al.
# Submitted via: Audion 3.0.2 (http://www.panic.com/audion/)
#
DISCID=cf0dbd0f
DTITLE=Various Artist - Chronicles of Narnia
DYEAR=1900
DGENRE=
TTITLE0=Waiting for the World to Fall - Jars of Clay
TTITLE1=Remembering You - Steven Curtis Chapman
TTITLE2=Open Up Your Eyes - Jeremy Camp
TTITLE3=Hero - Bethany Dillion
TTITLE4=Stronger - Delirious
TTITLE5=Lion - Rebecca St. James
TTITLE6=New World - Toby Mac
TTITLE7=I Will Believe - Nichole Nordeman
TTITLE8=Turkish Delight - David Crowder Band
TTITLE9=More Than It Seems - Kutless
TTITLE10=You're The One - Chris Tomlin
TTITLE11=Can't Take It In - Imogen Heap
TTITLE12=Where - Lisbeth Scott
TTITLE13=Wunderkind - Alanis Morissette
TTITLE14=Winter Light - Tim Finn
EXTD=
EXTT0=
EXTT1=
EXTT2=
EXTT3=
EXTT4=
EXTT5=
EXTT6=
EXTT7=
EXTT8=
EXTT9=
EXTT10=
EXTT11=
EXTT12=
EXTT13=
EXTT14=
PLAYORDER=
